ply
format ascii 1.0
comment VCGLIB generated
element vertex 133
property float x
property float y
property float z
property float nx
property float ny
property float nz
property float texture_u
property float texture_v
element face 170
property list uchar int vertex_indices
end_header
0.01538 -0.000986021 0.160269 0.5310081 0.02011251 0.847128 0.249346 0.187643
0.013954 -0.06643302 0.117419 0.5158084 -0.6896168 0.5083012 0.249346 0.187643
0.06874998 -0.004404991 -0.060991 0.8649237 0.1115488 -0.4893503 0.249346 0.187643
0.05151499 -0.04913499 -0.04550701 0.9692183 -0.2272737 -0.09466915 0.249346 0.187643
0.03255799 -0.098333 -0.02847801 0.6104078 -0.7796349 0.1398985 0.249346 0.187643
0.02042599 -0.08131998 -0.140211 0.7557784 -0.6169772 -0.2194035 0.249346 0.187643
0.011821 -0.104405 -0.1811 0.6862854 -0.7036811 0.1839701 0.249346 0.187643
0.03324499 -0.04805298 -0.17251 0.9401956 -0.3332661 -0.07046793 0.249346 0.187643
0.011821 -0.09661695 -0.281637 0.7649119 -0.5511225 -0.3334269 0.249346 0.187643
0.05035199 -0.004404976 -0.1811 0.999795 -0.002258018 -0.02011218 0.249346 0.187643
0.011821 -0.06620593 -0.463056 0.5800144 -0.8017356 -0.1442327 0.249346 0.187643
0.011821 -0.04225192 -0.589769 0.6691601 -0.7396284 0.07193312 0.249346 0.187643
0.03240999 -0.00440494 -0.463056 0.9978533 -0.002655046 -0.06543335 0.249346 0.187643
0.02377399 -0.004404919 -0.613985 0.9994759 -0.00692817 -0.03161779 0.249346 0.187643
0.06874998 -0.004404991 -0.060991 0.8649237 0.1115488 -0.4893503 0.256926 0.156236
0.03021799 0.086439 0.03292301 0.6003499 0.7995508 0.01727368 0.256926 0.156236
0.01538 -0.000986021 0.160269 0.5310081 0.02011251 0.847128 0.256926 0.156236
0.013954 0.05762299 0.117423 0.5104003 0.6726692 0.5357309 0.256926 0.156236
0.05035199 -0.004404976 -0.1811 0.999795 -0.002258018 -0.02011218 0.256926 0.156236
0.011821 0.09559502 -0.181097 0.7150046 0.6575974 0.2373477 0.256926 0.156236
0.05035199 -0.00440499 -0.071481 0.9226043 0.06790622 -0.3797232 0.256926 0.156236
0.011821 0.086439 0.02242901 0.2248333 0.9630565 -0.1482301 0.256926 0.156236
0.011821 0.08262105 -0.363893 0.7286536 0.587715 -0.3516459 0.256926 0.156236
0.02377399 -0.004404919 -0.613985 0.9994759 -0.00692817 -0.03161779 0.256926 0.156236
0.011821 0.03344208 -0.589765 0.6674449 0.7401706 0.08163771 0.256926 0.156236
0.03240999 -0.00440494 -0.463056 0.9978533 -0.002655046 -0.06543335 0.256926 0.156236
0.011821 0.05739605 -0.46306 0.5872262 0.790089 -0.1758537 0.256926 0.156236
-0.03255799 -0.098333 -0.02847801 -0.6104078 -0.7796349 0.1398985 0.249346 0.187643
0.011821 -0.104405 -0.03687401 0.134619 -0.9640335 0.2291663 0.249346 0.187643
0 -0.104405 -0.03687401 0 -0.9513973 0.3079662 0.249346 0.187643
-0.011821 -0.104405 -0.03687401 -0.134619 -0.9640335 0.2291663 0.249346 0.187643
0.02377399 -0.004404919 -0.613985 0.9994759 -0.00692817 -0.03161779 0.069030 0.398283
0.01680899 -0.06763091 -0.677629 0.9891838 -0.1461557 0.01239121 0.069030 0.398283
0.005765999 -0.00440491 -0.685846 0.7218336 -0.01052905 -0.6919864 0.069030 0.398283
0.01680899 0.04691709 -0.677629 0.994661 0.06659316 -0.07883155 0.069030 0.398283
0.011821 0.03344208 -0.589765 0.6674449 0.7401706 0.08163771 0.069030 0.398283
0.005765999 0.07138909 -0.659296 0.5642418 0.7300237 0.385612 0.069030 0.398283
0.005765999 0.1303571 -0.760141 0.5181506 0.6123021 -0.5971649 0.069030 0.398283
0.005765999 -0.1391679 -0.760145 0.5163519 -0.6121508 -0.5988755 0.069030 0.398283
0.011821 -0.04225192 -0.589769 0.6691601 -0.7396284 0.07193312 0.069030 0.398283
0.005765999 -0.08019991 -0.659299 0.5233708 -0.7377366 0.4264123 0.069030 0.398283
0.03977499 -0.004404954 -0.347307 0.997956 -0.01565648 -0.06195493 0.256926 0.156236
0.011821 0.09559502 -0.181097 0.7150046 0.6575974 0.2373477 0.069030 0.398283
0.011821 0.08262105 -0.363893 0.7286536 0.587715 -0.3516459 0.069030 0.398283
0.004871998 0.170809 -0.229829 0.5466285 0.8099783 0.2124436 0.069030 0.398283
0.004871998 0.108622 -0.353746 0.4921311 0.6196424 -0.611433 0.069030 0.398283
0.03977499 -0.004404954 -0.347307 0.997956 -0.01565648 -0.06195493 0.249346 0.187643
0.011821 -0.09661695 -0.281637 0.7649119 -0.5511225 -0.3334269 0.069030 0.398283
0.011821 -0.104405 -0.1811 0.6862854 -0.7036811 0.1839701 0.069030 0.398283
0.005711999 -0.135912 -0.275053 0.613182 -0.3532233 -0.7065699 0.069030 0.398283
0.005711999 -0.17081 -0.248148 0.5513837 -0.8317909 -0.0640288 0.069030 0.398283
0.03255799 -0.098333 -0.02847801 0.6104078 -0.7796349 0.1398985 0.069030 0.398283
0.03670999 -0.08227998 -0.128389 0.589658 -0.7656313 -0.2571225 0.069030 0.398283
0.05151499 -0.04913499 -0.04550701 0.9692183 -0.2272737 -0.09466915 0.069030 0.398283
0.04681499 -0.05698598 -0.14995 0.9218953 0.004608163 -0.3874114 0.069030 0.398283
0.03546199 -0.03866599 -0.058199 0.879812 0.09473167 -0.4657858 0.249346 0.187643
0.05035199 -0.00440499 -0.071481 0.9226043 0.06790622 -0.3797232 0.249346 0.187643
0.02042599 -0.08131998 -0.140211 0.7557784 -0.6169772 -0.2194035 0.069030 0.398283
0.011821 -0.104405 -0.03687401 0.134619 -0.9640335 0.2291663 0.069030 0.398283
0.03324499 -0.04805298 -0.17251 0.9401956 -0.3332661 -0.07046793 0.069030 0.398283
0.03546199 -0.03866599 -0.058199 0.879812 0.09473167 -0.4657858 0.069030 0.398283
-0.011821 -0.104405 -0.1811 -0.6862854 -0.7036811 0.1839701 0.249346 0.187643
-0.005765999 -0.08019991 -0.659299 -0.5233708 -0.7377366 0.4264123 0.069030 0.398283
-0.011821 -0.04225192 -0.589769 -0.6691601 -0.7396284 0.07193312 0.069030 0.398283
-0.005765999 -0.1391679 -0.760145 -0.5163519 -0.6121508 -0.5988755 0.069030 0.398283
-0.004871998 0.108622 -0.353746 -0.4921311 0.6196424 -0.611433 0.069030 0.398283
-0.011821 0.08262105 -0.363893 -0.7286536 0.587715 -0.3516459 0.069030 0.398283
-0.011821 -0.06620593 -0.463056 -0.5800144 -0.8017356 -0.1442327 0.249346 0.187643
-0.011821 -0.09661695 -0.281637 -0.7649119 -0.5511225 -0.3334269 0.249346 0.187643
-0.011821 -0.04225192 -0.589769 -0.6691601 -0.7396284 0.07193312 0.249346 0.187643
-0.005711999 -0.17081 -0.248148 -0.5513837 -0.8317909 -0.0640288 0.069030 0.398283
-0.011821 -0.104405 -0.1811 -0.6862854 -0.7036811 0.1839701 0.069030 0.398283
-0.005711999 -0.135912 -0.275053 -0.6131884 -0.353197 -0.7065773 0.069030 0.398283
0.02267 0.01313999 0.08293 0.3861607 -0.6213115 -0.6818003 0.083108 0.010575
0.03542799 0.01747299 0.086207 0.8112363 -0.3547886 -0.4647801 0.083108 0.010575
0.01767699 0.01049299 0.110056 0.09866885 -0.7685394 0.6321483 0.083108 0.010575
0.03043499 0.01482599 0.113333 0.5765471 -0.4599009 0.6753402 0.083108 0.010575
0.024893 0.04127699 0.114474 0.2812957 0.6513725 0.7046889 0.083108 0.010575
0.02988599 0.04392299 0.087344 0.5029235 0.7609026 -0.4099938 0.083108 0.010575
0.012135 0.03694299 0.111197 -0.3817291 0.5790627 0.7203951 0.083108 0.010575
0.01712799 0.03958999 0.084067 -0.05801655 0.7051681 -0.7066627 0.083108 0.010575
-0.01538 -0.000986021 0.160269 -0.5310081 0.02011251 0.847128 0.249346 0.187643
-0.06874998 -0.004404991 -0.060991 -0.8649237 0.1115488 -0.4893503 0.249346 0.187643
-0.013954 -0.06643302 0.117419 -0.5158084 -0.6896168 0.5083012 0.249346 0.187643
-0.05151499 -0.04913499 -0.04550701 -0.9692183 -0.2272737 -0.09466915 0.249346 0.187643
-0.02042599 -0.08131998 -0.140211 -0.7557784 -0.6169772 -0.2194035 0.249346 0.187643
-0.03324499 -0.04805298 -0.17251 -0.9401956 -0.3332661 -0.07046793 0.249346 0.187643
-0.05035199 -0.004404976 -0.1811 -0.999795 -0.002258018 -0.02011218 0.249346 0.187643
-0.03240999 -0.00440494 -0.463056 -0.9978533 -0.002655046 -0.06543335 0.249346 0.187643
-0.02377399 -0.004404919 -0.613985 -0.9994759 -0.00692817 -0.03161779 0.249346 0.187643
-0.013954 0.05762299 0.117423 -0.5104003 0.6726692 0.5357309 0.256926 0.156236
-0.03021799 0.086439 0.03292301 -0.6003499 0.7995508 0.01727368 0.256926 0.156236
-0.01538 -0.000986021 0.160269 -0.5310081 0.02011251 0.847128 0.256926 0.156236
-0.06874998 -0.004404991 -0.060991 -0.8649237 0.1115488 -0.4893503 0.256926 0.156236
-0.011821 0.086439 0.02242901 -0.2248333 0.9630565 -0.1482301 0.256926 0.156236
-0.011821 0.09559502 -0.181097 -0.7150046 0.6575974 0.2373477 0.256926 0.156236
-0.05035199 -0.00440499 -0.071481 -0.9226043 0.06790622 -0.3797232 0.256926 0.156236
-0.05035199 -0.004404976 -0.1811 -0.999795 -0.002258018 -0.02011218 0.256926 0.156236
-0.011821 0.08262105 -0.363893 -0.7286536 0.587715 -0.3516459 0.256926 0.156236
-0.011821 0.05739605 -0.46306 -0.5872262 0.790089 -0.1758537 0.256926 0.156236
-0.011821 0.03344208 -0.589765 -0.6674449 0.7401706 0.08163771 0.256926 0.156236
-0.03240999 -0.00440494 -0.463056 -0.9978533 -0.002655046 -0.06543335 0.256926 0.156236
-0.02377399 -0.004404919 -0.613985 -0.9994759 -0.00692817 -0.03161779 0.256926 0.156236
-0.02377399 -0.004404919 -0.613985 -0.9994759 -0.00692817 -0.03161779 0.069030 0.398283
-0.005765999 -0.00440491 -0.685846 -0.7218336 -0.01052905 -0.6919864 0.069030 0.398283
-0.01680899 -0.06763091 -0.677629 -0.9891838 -0.1461557 0.01239121 0.069030 0.398283
-0.005765999 0.07138909 -0.659296 -0.5642418 0.7300237 0.385612 0.069030 0.398283
-0.01680899 0.04691709 -0.677629 -0.994661 0.06659316 -0.07883155 0.069030 0.398283
-0.011821 0.03344208 -0.589765 -0.6674449 0.7401706 0.08163771 0.069030 0.398283
-0.005765999 0.1303571 -0.760141 -0.5181506 0.6123021 -0.5971649 0.069030 0.398283
-0.03977499 -0.004404954 -0.347307 -0.997956 -0.01565648 -0.06195493 0.256926 0.156236
-0.011821 0.09559502 -0.181097 -0.7150046 0.6575974 0.2373477 0.069030 0.398283
-0.004871998 0.170809 -0.229829 -0.5466285 0.8099783 0.2124436 0.069030 0.398283
-0.03977499 -0.004404954 -0.347307 -0.997956 -0.01565648 -0.06195493 0.249346 0.187643
-0.011821 -0.09661695 -0.281637 -0.7649119 -0.5511225 -0.3334269 0.069030 0.398283
-0.03255799 -0.098333 -0.02847801 -0.6104078 -0.7796349 0.1398985 0.069030 0.398283
-0.05151499 -0.04913499 -0.04550701 -0.9692183 -0.2272737 -0.09466915 0.069030 0.398283
-0.03670999 -0.08227998 -0.128389 -0.589658 -0.7656313 -0.2571225 0.069030 0.398283
-0.04681499 -0.05698598 -0.14995 -0.9218953 0.004608163 -0.3874114 0.069030 0.398283
-0.03546199 -0.03866599 -0.058199 -0.879812 0.09473167 -0.4657858 0.249346 0.187643
-0.05035199 -0.00440499 -0.071481 -0.9226043 0.06790622 -0.3797232 0.249346 0.187643
-0.011821 -0.104405 -0.03687401 -0.134619 -0.9640335 0.2291663 0.069030 0.398283
-0.02042599 -0.08131998 -0.140211 -0.7557784 -0.6169772 -0.2194035 0.069030 0.398283
-0.03324499 -0.04805298 -0.17251 -0.9401956 -0.3332661 -0.07046793 0.069030 0.398283
-0.03546199 -0.03866599 -0.058199 -0.879812 0.09473167 -0.4657858 0.069030 0.398283
-0.030967 0.01485899 0.11524 -0.6544204 -0.3496268 0.6704439 0.083108 0.010575
-0.03419199 0.01580499 0.087733 -0.8152904 -0.3136464 -0.4867516 0.083108 0.010575
-0.01853099 0.009115986 0.113081 -0.2071025 -0.7038909 0.6794453 0.083108 0.010575
-0.021756 0.01006199 0.085577 -0.4069415 -0.6347049 -0.6569233 0.083108 0.010575
-0.02295099 0.04068799 0.114771 -0.2547413 0.7283646 0.6360756 0.083108 0.010575
-0.02617599 0.04163399 0.087264 -0.4034311 0.7694467 -0.4951717 0.083108 0.010575
-0.010515 0.03494499 0.11262 0.3962868 0.5962768 0.698148 0.083108 0.010575
-0.01374 0.03589099 0.085112 0.1648661 0.638681 -0.7516023 0.083108 0.010575
3 0 1 2 
3 2 1 3 
3 1 4 3 
3 5 6 7 
3 6 8 9 
3 10 11 12 
3 12 11 13 
3 14 15 16 
3 16 15 17 
3 18 19 20 
3 20 19 21 
3 18 22 19 
3 23 24 25 
3 25 24 26 
3 4 27 28 
3 28 27 29 
3 30 29 27 
3 20 21 14 
3 14 21 15 
3 31 32 33 
3 31 34 35 
3 35 34 36 
3 36 34 37 
3 33 32 38 
3 39 40 31 
3 31 40 32 
3 38 32 40 
3 34 31 33 
3 37 34 33 
3 18 41 22 
3 42 43 44 
3 44 43 45 
3 8 46 9 
3 47 48 49 
3 50 49 48 
3 12 46 10 
3 10 46 8 
3 41 25 22 
3 22 25 26 
3 51 52 53 
3 53 52 54 
3 3 55 2 
3 2 55 56 
3 57 52 58 
3 58 52 51 
3 59 54 57 
3 57 54 52 
3 59 60 54 
3 54 60 53 
3 9 56 7 
3 7 56 55 
3 28 6 5 
3 7 6 9 
3 6 28 61 
3 28 29 61 
3 29 30 61 
3 40 39 62 
3 62 39 63 
3 38 40 64 
3 64 40 62 
3 45 43 65 
3 65 43 66 
3 10 8 67 
3 67 8 68 
3 11 10 69 
3 69 10 67 
3 50 48 70 
3 70 48 71 
3 49 50 72 
3 72 50 70 
3 73 74 75 
3 75 74 76 
3 76 74 77 
3 77 74 78 
3 77 78 79 
3 79 78 80 
3 73 80 74 
3 74 80 78 
3 75 76 79 
3 79 76 77 
3 81 82 83 
3 82 84 83 
3 83 84 27 
3 85 86 61 
3 61 87 68 
3 67 88 69 
3 69 88 89 
3 90 91 92 
3 92 91 93 
3 94 95 96 
3 96 95 97 
3 97 95 98 
3 99 100 101 
3 101 100 102 
3 81 83 0 
3 0 83 1 
3 96 93 94 
3 94 93 91 
3 15 91 17 
3 17 91 90 
3 90 92 17 
3 17 92 16 
3 103 104 105 
3 106 107 108 
3 108 107 103 
3 106 109 107 
3 104 64 105 
3 105 62 103 
3 103 62 63 
3 64 62 105 
3 107 104 103 
3 109 104 107 
3 97 98 110 
3 111 112 66 
3 66 112 65 
3 68 87 113 
3 114 72 71 
3 70 71 72 
3 88 67 113 
3 113 67 68 
3 99 101 98 
3 98 101 110 
3 115 116 117 
3 117 116 118 
3 84 82 119 
3 119 82 120 
3 115 117 121 
3 121 117 122 
3 117 118 122 
3 122 118 123 
3 123 118 124 
3 124 118 116 
3 119 120 86 
3 86 120 87 
3 30 85 61 
3 86 87 61 
3 19 95 21 
3 21 95 94 
3 24 100 26 
3 26 100 99 
3 36 106 35 
3 35 106 108 
3 37 109 36 
3 36 109 106 
3 33 104 37 
3 37 104 109 
3 38 64 33 
3 33 64 104 
3 26 99 22 
3 22 99 98 
3 44 112 42 
3 42 112 111 
3 45 65 44 
3 44 65 112 
3 49 72 47 
3 47 72 114 
3 125 126 127 
3 127 126 128 
3 125 129 126 
3 126 129 130 
3 129 131 130 
3 130 131 132 
3 128 126 132 
3 132 126 130 
3 129 125 131 
3 131 125 127 
3 94 91 21 
3 21 91 15 
3 27 4 83 
3 83 4 1 
