ply
format ascii 1.0
comment VCGLIB generated
element vertex 24
property float x
property float y
property float z
property float nx
property float ny
property float nz
property float texture_u
property float texture_v
element face 12
property list uchar int vertex_indices
end_header
50 9.999999 -51 1 0 -4.371139e-08 1.000000 1.000000
50 9.999999 -49 1 0 -4.371139e-08 -1.000000 1.000000
50 -9.999999 -49 1 0 -4.371139e-08 -1.000000 -1.000000
50 -9.999999 -51 1 0 -4.371139e-08 1.000000 -1.000000
-50 -9.999999 -51 0 -0.9999999 0 1.000000 -1.000000
50 -9.999999 -51 0 -0.9999999 0 1.000000 -1.000000
50 -9.999999 -49 0 -0.9999999 0 -1.000000 -1.000000
-50 -9.999999 -49 0 -0.9999999 0 -1.000000 -1.000000
-50 -9.999999 -49 4.371139e-08 0 1 -1.000000 -1.000000
50 -9.999999 -49 4.371139e-08 0 1 -1.000000 -1.000000
50 9.999999 -49 4.371139e-08 0 1 -1.000000 1.000000
-50 9.999999 -49 4.371139e-08 0 1 -1.000000 1.000000
-50 9.999999 -49 -1 0 4.371139e-08 -1.000000 1.000000
-50 9.999999 -51 -1 0 4.371139e-08 1.000000 1.000000
-50 -9.999999 -51 -1 0 4.371139e-08 1.000000 -1.000000
-50 -9.999999 -49 -1 0 4.371139e-08 -1.000000 -1.000000
-50 9.999999 -51 -4.371139e-08 0 -1 1.000000 1.000000
50 9.999999 -51 -4.371139e-08 0 -1 1.000000 1.000000
50 -9.999999 -51 -4.371139e-08 0 -1 1.000000 -1.000000
-50 -9.999999 -51 -4.371139e-08 0 -1 1.000000 -1.000000
-50 9.999999 -49 0 0.9999999 0 -1.000000 1.000000
50 9.999999 -49 0 0.9999999 0 -1.000000 1.000000
50 9.999999 -51 0 0.9999999 0 1.000000 1.000000
-50 9.999999 -51 0 0.9999999 0 1.000000 1.000000
3 0 1 2 
3 0 2 3 
3 4 5 6 
3 4 6 7 
3 8 9 10 
3 8 10 11 
3 12 13 14 
3 12 14 15 
3 16 17 18 
3 16 18 19 
3 20 21 22 
3 20 22 23 
