ply
format ascii 1.0
comment VCGLIB generated
element vertex 133
property float x
property float y
property float z
property float nx
property float ny
property float nz
property float texture_u
property float texture_v
element face 170
property list uchar int vertex_indices
end_header
0.01538 -0.160269 -0.000986 0.530992 -0.847102 0.020112 0.249346 0.187643
0.013954 -0.117419 -0.066433 0.515793 -0.508286 -0.689596 0.249346 0.187643
0.06875 0.060991 -0.004405 0.864895 0.489334 0.111545 0.249346 0.187643
0.051515 0.045507 -0.049135 0.969207 0.094668 -0.227271 0.249346 0.187643
0.032558 0.028478 -0.098333 0.610401 -0.139897 -0.779626 0.249346 0.187643
0.020426 0.140211 -0.08132 0.75576 0.219398 -0.616962 0.249346 0.187643
0.011821 0.1811 -0.104405 0.68627 -0.183966 -0.703665 0.249346 0.187643
0.033245 0.17251 -0.048053 0.940184 0.070467 -0.333262 0.249346 0.187643
0.011821 0.281637 -0.096617 0.764885 0.333415 -0.551103 0.249346 0.187643
0.050352 0.1811 -0.004405 0.999786 0.020112 -0.002258 0.249346 0.187643
0.011821 0.463056 -0.066206 0.580004 0.14423 -0.801721 0.249346 0.187643
0.011821 0.589769 -0.042252 0.669149 -0.071932 -0.739616 0.249346 0.187643
0.03241 0.463056 -0.004405 0.997833 0.065432 -0.002655 0.249346 0.187643
0.023774 0.613985 -0.004405 0.999451 0.031617 -0.006928 0.249346 0.187643
0.06875 0.060991 -0.004405 0.864895 0.489334 0.111545 0.256926 0.156236
0.030218 -0.032923 0.086439 0.60033 -0.017273 0.799524 0.256926 0.156236
0.01538 -0.160269 -0.000986 0.530992 -0.847102 0.020112 0.256926 0.156236
0.013954 -0.117423 0.057623 0.510392 -0.535722 0.672658 0.256926 0.156236
0.050352 0.1811 -0.004405 0.999786 0.020112 -0.002258 0.256926 0.156236
0.011821 0.181097 0.095595 0.714988 -0.237342 0.657582 0.256926 0.156236
0.050352 0.071481 -0.004405 0.922575 0.379711 0.067904 0.256926 0.156236
0.011821 -0.022429 0.086439 0.22483 0.148228 0.963042 0.256926 0.156236
0.011821 0.363893 0.082621 0.728629 0.351634 0.587695 0.256926 0.156236
0.023774 0.613985 -0.004405 0.999451 0.031617 -0.006928 0.256926 0.156236
0.011821 0.589765 0.033442 0.66744 -0.081637 0.740165 0.256926 0.156236
0.03241 0.463056 -0.004405 0.997833 0.065432 -0.002655 0.256926 0.156236
0.011821 0.46306 0.057396 0.587207 0.175848 0.790063 0.256926 0.156236
-0.032558 0.028478 -0.098333 -0.610401 -0.139897 -0.779626 0.249346 0.187643
0.011821 0.036874 -0.104405 0.134617 -0.229163 -0.964019 0.249346 0.187643
-0 0.036874 -0.104405 0 -0.307962 -0.951384 0.249346 0.187643
-0.011821 0.036874 -0.104405 -0.134617 -0.229163 -0.964019 0.249346 0.187643
0.023774 0.613985 -0.004405 0.999451 0.031617 -0.006928 0.06903 0.398283
0.016809 0.677629 -0.067631 0.989166 -0.012391 -0.146153 0.06903 0.398283
0.005766 0.685846 -0.004405 0.721824 0.691977 -0.010529 0.06903 0.398283
0.016809 0.677629 0.046917 0.994629 0.078829 0.066591 0.06903 0.398283
0.011821 0.589765 0.033442 0.66744 -0.081637 0.740165 0.06903 0.398283
0.005766 0.659296 0.071389 0.564226 -0.385601 0.730003 0.06903 0.398283
0.005766 0.760141 0.130357 0.518143 0.597156 0.612293 0.06903 0.398283
0.005766 0.760145 -0.139168 0.516343 0.598865 -0.61214 0.06903 0.398283
0.011821 0.589769 -0.042252 0.669149 -0.071932 -0.739616 0.06903 0.398283
0.005766 0.659299 -0.0802 0.523362 -0.426405 -0.737724 0.06903 0.398283
0.039775 0.347307 -0.004405 0.997925 0.061953 -0.015656 0.256926 0.156236
0.011821 0.181097 0.095595 0.714988 -0.237342 0.657582 0.06903 0.398283
0.011821 0.363893 0.082621 0.728629 0.351634 0.587695 0.06903 0.398283
0.004872 0.229829 0.170809 0.546617 -0.212439 0.809961 0.06903 0.398283
0.004872 0.353746 0.108622 0.492111 0.611408 0.619617 0.06903 0.398283
0.039775 0.347307 -0.004405 0.997925 0.061953 -0.015656 0.249346 0.187643
0.011821 0.281637 -0.096617 0.764885 0.333415 -0.551103 0.06903 0.398283
0.011821 0.1811 -0.104405 0.68627 -0.183966 -0.703665 0.06903 0.398283
0.005712 0.275053 -0.135912 0.613178 0.706565 -0.353221 0.06903 0.398283
0.005712 0.248148 -0.17081 0.551378 0.064028 -0.831782 0.06903 0.398283
0.032558 0.028478 -0.098333 0.610401 -0.139897 -0.779626 0.06903 0.398283
0.03671 0.128389 -0.08228 0.589648 0.257118 -0.765618 0.06903 0.398283
0.051515 0.045507 -0.049135 0.969207 0.094668 -0.227271 0.06903 0.398283
0.046815 0.14995 -0.056986 0.921873 0.387402 0.004608 0.06903 0.398283
0.035462 0.058199 -0.038666 0.879788 0.465773 0.094729 0.249346 0.187643
0.050352 0.071481 -0.004405 0.922575 0.379711 0.067904 0.249346 0.187643
0.020426 0.140211 -0.08132 0.75576 0.219398 -0.616962 0.06903 0.398283
0.011821 0.036874 -0.104405 0.134617 -0.229163 -0.964019 0.06903 0.398283
0.033245 0.17251 -0.048053 0.940184 0.070467 -0.333262 0.06903 0.398283
0.035462 0.058199 -0.038666 0.879788 0.465773 0.094729 0.06903 0.398283
-0.011821 0.1811 -0.104405 -0.68627 -0.183966 -0.703665 0.249346 0.187643
-0.005766 0.659299 -0.0802 -0.523362 -0.426405 -0.737724 0.06903 0.398283
-0.011821 0.589769 -0.042252 -0.669149 -0.071932 -0.739616 0.06903 0.398283
-0.005766 0.760145 -0.139168 -0.516343 0.598865 -0.61214 0.06903 0.398283
-0.004872 0.353746 0.108622 -0.492111 0.611408 0.619617 0.06903 0.398283
-0.011821 0.363893 0.082621 -0.728629 0.351634 0.587695 0.06903 0.398283
-0.011821 0.463056 -0.066206 -0.580004 0.14423 -0.801721 0.249346 0.187643
-0.011821 0.281637 -0.096617 -0.764885 0.333415 -0.551103 0.249346 0.187643
-0.011821 0.589769 -0.042252 -0.669149 -0.071932 -0.739616 0.249346 0.187643
-0.005712 0.248148 -0.17081 -0.551378 0.064028 -0.831782 0.06903 0.398283
-0.011821 0.1811 -0.104405 -0.68627 -0.183966 -0.703665 0.06903 0.398283
-0.005712 0.275053 -0.135912 -0.613178 0.706565 -0.353191 0.06903 0.398283
0.02267 -0.08293 0.01314 0.386151 0.681783 -0.621296 0.083108 0.010575
0.035428 -0.086207 0.017473 0.811212 0.464766 -0.354778 0.083108 0.010575
0.017677 -0.110056 0.010493 0.098666 -0.63213 -0.768517 0.083108 0.010575
0.030435 -0.113333 0.014826 0.576525 -0.675314 -0.459883 0.083108 0.010575
0.024893 -0.114474 0.041277 0.281289 -0.704672 0.651357 0.083108 0.010575
0.029886 -0.087344 0.043923 0.502914 0.409986 0.760888 0.083108 0.010575
0.012135 -0.111197 0.036943 -0.381726 -0.720389 0.579058 0.083108 0.010575
0.017128 -0.084067 0.03959 -0.058016 0.706656 0.705161 0.083108 0.010575
-0.01538 -0.160269 -0.000986 -0.530992 -0.847102 0.020112 0.249346 0.187643
-0.06875 0.060991 -0.004405 -0.864895 0.489334 0.111545 0.249346 0.187643
-0.013954 -0.117419 -0.066433 -0.515793 -0.508286 -0.689596 0.249346 0.187643
-0.051515 0.045507 -0.049135 -0.969207 0.094668 -0.227271 0.249346 0.187643
-0.020426 0.140211 -0.08132 -0.75576 0.219398 -0.616962 0.249346 0.187643
-0.033245 0.17251 -0.048053 -0.940184 0.070467 -0.333262 0.249346 0.187643
-0.050352 0.1811 -0.004405 -0.999786 0.020112 -0.002258 0.249346 0.187643
-0.03241 0.463056 -0.004405 -0.997833 0.065432 -0.002655 0.249346 0.187643
-0.023774 0.613985 -0.004405 -0.999451 0.031617 -0.006928 0.249346 0.187643
-0.013954 -0.117423 0.057623 -0.510392 -0.535722 0.672658 0.256926 0.156236
-0.030218 -0.032923 0.086439 -0.60033 -0.017273 0.799524 0.256926 0.156236
-0.01538 -0.160269 -0.000986 -0.530992 -0.847102 0.020112 0.256926 0.156236
-0.06875 0.060991 -0.004405 -0.864895 0.489334 0.111545 0.256926 0.156236
-0.011821 -0.022429 0.086439 -0.22483 0.148228 0.963042 0.256926 0.156236
-0.011821 0.181097 0.095595 -0.714988 -0.237342 0.657582 0.256926 0.156236
-0.050352 0.071481 -0.004405 -0.922575 0.379711 0.067904 0.256926 0.156236
-0.050352 0.1811 -0.004405 -0.999786 0.020112 -0.002258 0.256926 0.156236
-0.011821 0.363893 0.082621 -0.728629 0.351634 0.587695 0.256926 0.156236
-0.011821 0.46306 0.057396 -0.587207 0.175848 0.790063 0.256926 0.156236
-0.011821 0.589765 0.033442 -0.66744 -0.081637 0.740165 0.256926 0.156236
-0.03241 0.463056 -0.004405 -0.997833 0.065432 -0.002655 0.256926 0.156236
-0.023774 0.613985 -0.004405 -0.999451 0.031617 -0.006928 0.256926 0.156236
-0.023774 0.613985 -0.004405 -0.999451 0.031617 -0.006928 0.06903 0.398283
-0.005766 0.685846 -0.004405 -0.721824 0.691977 -0.010529 0.06903 0.398283
-0.016809 0.677629 -0.067631 -0.989166 -0.012391 -0.146153 0.06903 0.398283
-0.005766 0.659296 0.071389 -0.564226 -0.385601 0.730003 0.06903 0.398283
-0.016809 0.677629 0.046917 -0.994629 0.078829 0.066591 0.06903 0.398283
-0.011821 0.589765 0.033442 -0.66744 -0.081637 0.740165 0.06903 0.398283
-0.005766 0.760141 0.130357 -0.518143 0.597156 0.612293 0.06903 0.398283
-0.039775 0.347307 -0.004405 -0.997925 0.061953 -0.015656 0.256926 0.156236
-0.011821 0.181097 0.095595 -0.714988 -0.237342 0.657582 0.06903 0.398283
-0.004872 0.229829 0.170809 -0.546617 -0.212439 0.809961 0.06903 0.398283
-0.039775 0.347307 -0.004405 -0.997925 0.061953 -0.015656 0.249346 0.187643
-0.011821 0.281637 -0.096617 -0.764885 0.333415 -0.551103 0.06903 0.398283
-0.032558 0.028478 -0.098333 -0.610401 -0.139897 -0.779626 0.06903 0.398283
-0.051515 0.045507 -0.049135 -0.969207 0.094668 -0.227271 0.06903 0.398283
-0.03671 0.128389 -0.08228 -0.589648 0.257118 -0.765618 0.06903 0.398283
-0.046815 0.14995 -0.056986 -0.921873 0.387402 0.004608 0.06903 0.398283
-0.035462 0.058199 -0.038666 -0.879788 0.465773 0.094729 0.249346 0.187643
-0.050352 0.071481 -0.004405 -0.922575 0.379711 0.067904 0.249346 0.187643
-0.011821 0.036874 -0.104405 -0.134617 -0.229163 -0.964019 0.06903 0.398283
-0.020426 0.140211 -0.08132 -0.75576 0.219398 -0.616962 0.06903 0.398283
-0.033245 0.17251 -0.048053 -0.940184 0.070467 -0.333262 0.06903 0.398283
-0.035462 0.058199 -0.038666 -0.879788 0.465773 0.094729 0.06903 0.398283
-0.030967 -0.11524 0.014859 -0.654408 -0.670431 -0.34962 0.083108 0.010575
-0.034192 -0.087733 0.015805 -0.815271 0.48674 -0.313639 0.083108 0.010575
-0.018531 -0.113081 0.009116 -0.207099 -0.679434 -0.703879 0.083108 0.010575
-0.021756 -0.085577 0.010062 -0.406934 0.656911 -0.634693 0.083108 0.010575
-0.022951 -0.114771 0.040688 -0.254738 -0.636067 0.728355 0.083108 0.010575
-0.026176 -0.087264 0.041634 -0.403424 0.495163 0.769433 0.083108 0.010575
-0.010515 -0.11262 0.034945 0.396283 -0.698141 0.596271 0.083108 0.010575
-0.01374 -0.085112 0.035891 0.164861 0.751579 0.638661 0.083108 0.010575
3 0 1 2 
3 2 1 3 
3 1 4 3 
3 5 6 7 
3 6 8 9 
3 10 11 12 
3 12 11 13 
3 14 15 16 
3 16 15 17 
3 18 19 20 
3 20 19 21 
3 18 22 19 
3 23 24 25 
3 25 24 26 
3 4 27 28 
3 28 27 29 
3 30 29 27 
3 20 21 14 
3 14 21 15 
3 31 32 33 
3 31 34 35 
3 35 34 36 
3 36 34 37 
3 33 32 38 
3 39 40 31 
3 31 40 32 
3 38 32 40 
3 34 31 33 
3 37 34 33 
3 18 41 22 
3 42 43 44 
3 44 43 45 
3 8 46 9 
3 47 48 49 
3 50 49 48 
3 12 46 10 
3 10 46 8 
3 41 25 22 
3 22 25 26 
3 51 52 53 
3 53 52 54 
3 3 55 2 
3 2 55 56 
3 57 52 58 
3 58 52 51 
3 59 54 57 
3 57 54 52 
3 59 60 54 
3 54 60 53 
3 9 56 7 
3 7 56 55 
3 28 6 5 
3 7 6 9 
3 6 28 61 
3 28 29 61 
3 29 30 61 
3 40 39 62 
3 62 39 63 
3 38 40 64 
3 64 40 62 
3 45 43 65 
3 65 43 66 
3 10 8 67 
3 67 8 68 
3 11 10 69 
3 69 10 67 
3 50 48 70 
3 70 48 71 
3 49 50 72 
3 72 50 70 
3 73 74 75 
3 75 74 76 
3 76 74 77 
3 77 74 78 
3 77 78 79 
3 79 78 80 
3 73 80 74 
3 74 80 78 
3 75 76 79 
3 79 76 77 
3 81 82 83 
3 82 84 83 
3 83 84 27 
3 85 86 61 
3 61 87 68 
3 67 88 69 
3 69 88 89 
3 90 91 92 
3 92 91 93 
3 94 95 96 
3 96 95 97 
3 97 95 98 
3 99 100 101 
3 101 100 102 
3 81 83 0 
3 0 83 1 
3 96 93 94 
3 94 93 91 
3 15 91 17 
3 17 91 90 
3 90 92 17 
3 17 92 16 
3 103 104 105 
3 106 107 108 
3 108 107 103 
3 106 109 107 
3 104 64 105 
3 105 62 103 
3 103 62 63 
3 64 62 105 
3 107 104 103 
3 109 104 107 
3 97 98 110 
3 111 112 66 
3 66 112 65 
3 68 87 113 
3 114 72 71 
3 70 71 72 
3 88 67 113 
3 113 67 68 
3 99 101 98 
3 98 101 110 
3 115 116 117 
3 117 116 118 
3 84 82 119 
3 119 82 120 
3 115 117 121 
3 121 117 122 
3 117 118 122 
3 122 118 123 
3 123 118 124 
3 124 118 116 
3 119 120 86 
3 86 120 87 
3 30 85 61 
3 86 87 61 
3 19 95 21 
3 21 95 94 
3 24 100 26 
3 26 100 99 
3 36 106 35 
3 35 106 108 
3 37 109 36 
3 36 109 106 
3 33 104 37 
3 37 104 109 
3 38 64 33 
3 33 64 104 
3 26 99 22 
3 22 99 98 
3 44 112 42 
3 42 112 111 
3 45 65 44 
3 44 65 112 
3 49 72 47 
3 47 72 114 
3 125 126 127 
3 127 126 128 
3 125 129 126 
3 126 129 130 
3 129 131 130 
3 130 131 132 
3 128 126 132 
3 132 126 130 
3 129 125 131 
3 131 125 127 
3 94 91 21 
3 21 91 15 
3 27 4 83 
3 83 4 1 
